<svg width="38" height="38" viewBox="0 0 38 38" fill="none" xmlns="http://www.w3.org/2000/svg">
<circle cx="19" cy="19" r="19" fill="#B8B8B8"/>
<path d="M20.2944 19.3726H13.9128M13.7319 20.2091L12.6776 23.3586C12.1002 25.0835 11.8114 25.9459 12.0186 26.477C12.1986 26.9383 12.585 27.2879 13.0619 27.4211C13.611 27.5743 14.4404 27.201 16.0992 26.4546L26.7336 21.6691C28.3527 20.9405 29.1623 20.5763 29.4124 20.0702C29.6299 19.6305 29.6299 19.1145 29.4124 18.6749C29.1623 18.1689 28.3527 17.8045 26.7336 17.0759L16.0809 12.2822C14.4271 11.538 13.6002 11.1659 13.0516 11.3186C12.5752 11.4511 12.1888 11.7999 12.0082 12.2603C11.8003 12.7904 12.0859 13.651 12.6572 15.3722L13.734 18.6163C13.8321 18.9119 13.8812 19.0598 13.9005 19.2109C13.9177 19.3451 13.9175 19.4809 13.9 19.615C13.8803 19.7661 13.8308 19.9137 13.7319 20.2091Z" stroke="#444444" stroke-width="3" stroke-linecap="round" stroke-linejoin="round"/>
</svg>
